<?xml version="1.0" standalone="no"?>
<!DOCTYPE svg PUBLIC "-//W3C//DTD SVG 1.1//EN" "http://www.w3.org/Graphics/SVG/1.1/DTD/svg11.dtd" >
<svg xmlns="http://www.w3.org/2000/svg">
<metadata>
<json>
<![CDATA[
{
	"fontFamily": "crn_font_sale",
	"majorVersion": 1,
	"minorVersion": 0,
	"description": "Font generated by IcoMoon.",
	"version": "Version 1.0",
	"fontId": "crn_font_sale",
	"psName": "crn_font_sale",
	"subFamily": "Regular",
	"fullName": "crn_font_sale"
}
]]>
</json>
</metadata>
<defs>
<font id="crn_font_sale" horiz-adv-x="1024">
<font-face units-per-em="1024" ascent="960" descent="-64" />
<missing-glyph horiz-adv-x="1024" />
<glyph unicode="&#x20;" horiz-adv-x="512" d="" />
<glyph unicode="&#xe900;" glyph-name="uniE900" data-tags="uniE900" d="M512 960c-281.6 0-512-230.4-512-512s230.4-512 512-512c281.6 0 512 230.4 512 512s-230.4 512-512 512zM563.2 40.96v202.24h-76.8v-202.24c-202.24 12.8-363.52 171.52-381.44 368.64h215.040v76.8h-215.040c17.92 199.68 181.76 358.4 381.44 368.64v-202.24h76.8v202.24c186.88-23.040 335.36-171.52 355.84-360.96h-181.76v-76.8h181.76c-12.8-194.56-163.84-350.72-355.84-376.32z" />
<glyph unicode="&#xe901;" glyph-name="uniE901" data-tags="uniE901" d="M682.667 448c4.267-12.8 0-29.867-12.8-38.4l-426.667-375.467c-17.067-17.067-42.667-12.8-59.733 4.267s-12.8 42.667 4.267 59.733l401.067 354.133-405.333 349.867c-17.067 17.067-17.067 42.667-4.267 59.733s42.667 17.067 59.733 4.267l426.667-375.467c12.8-12.8 21.333-29.867 17.067-42.667z" />
<glyph unicode="&#xe902;" glyph-name="uniE902" data-tags="uniE902" d="M81.067 490.667c17.067 0 34.133 12.8 38.4 34.133 29.867 209.067 209.067 362.667 413.867 362.667 170.667 0 328.533-106.667 388.267-268.8 8.533-17.067 25.6-25.6 42.667-25.6 17.067 4.267 29.867 21.333 29.867 38.4v238.933c0 12.8-8.533 25.6-17.067 34.133s-25.6 8.533-38.4 0c-12.8-8.533-17.067-21.333-17.067-34.133v-102.4c-29.867 38.4-64 72.533-106.667 102.4-85.333 59.733-183.467 89.6-281.6 89.6-243.2 0-452.267-179.2-490.667-426.667 0-12.8 0-21.333 8.533-29.867s17.067-12.8 29.867-12.8zM989.867 405.333c-21.333 4.267-38.4-12.8-42.667-34.133-29.867-209.067-209.067-362.667-413.867-362.667-170.667 0-324.267 102.4-388.267 264.533-4.267 21.333-21.333 34.133-38.4 34.133s-34.133-17.067-34.133-38.4v-243.2c0-21.333 17.067-38.4 38.4-38.4s38.4 17.067 38.4 38.4v98.133c29.867-38.4 64-72.533 106.667-102.4 81.067-59.733 179.2-89.6 281.6-89.6 243.2 0 452.267 179.2 490.667 426.667 0 25.6-17.067 46.933-38.4 46.933z" />
<glyph unicode="&#xe903;" glyph-name="uniE903" data-tags="uniE903" d="M347.62 448l420.38 385.348c16.168 16.168 18.864 43.116 2.696 59.284-16.172 16.168-43.12 18.864-61.98 2.696l-452.716-417.688c-8.084-8.088-13.472-18.864-13.472-29.644s5.388-21.56 13.472-29.64l452.716-417.688c8.084-8.080 18.864-10.776 29.64-10.776 10.78 0 21.56 5.388 32.34 13.472 16.168 16.168 16.168 43.116-2.696 59.284l-420.38 385.352z" />
<glyph unicode="&#xe904;" glyph-name="uniE904" data-tags="uniE904" d="M906.971 466.286c-43.886-266.971-263.314-442.514-354.743-504.686-25.6-18.286-58.514-18.286-84.114 0-98.743 73.143-358.4 281.6-358.4 596.114 0 230.4 193.829 413.257 427.886 402.286 241.371-14.629 409.6-248.686 369.371-493.714zM658.286 557.714c0 80.457-65.829 146.286-146.286 146.286s-146.286-65.829-146.286-146.286 65.829-146.286 146.286-146.286 146.286 65.829 146.286 146.286z" />
<glyph unicode="&#xe905;" glyph-name="uniE905" data-tags="uniE905" d="M983.040 28.16l-92.16 230.4c-7.68 20.48-30.72 28.16-51.2 20.48s-28.16-30.72-20.48-51.2l71.68-176.64h-757.76l71.68 176.64c7.68 20.48-2.56 40.96-20.48 51.2-20.48 7.68-40.96-2.56-51.2-20.48l-92.16-230.4c-5.12-12.8-2.56-25.6 2.56-35.84s17.92-17.92 30.72-17.92h870.4c12.8 0 25.6 5.12 30.72 17.92s12.8 23.040 7.68 35.84zM465.92 120.32c12.8-12.8 28.16-17.92 46.080-17.92 15.36 0 33.28 5.12 46.080 17.92l199.68 199.68c133.12 135.68 133.12 358.4 0 496.64l-2.56 2.56c-64 66.56-153.6 102.4-243.2 102.4-92.16 0-179.2-35.84-243.2-104.96-133.12-138.24-135.68-360.96 0-499.2l197.12-197.12zM322.56 762.88c51.2 51.2 117.76 81.92 189.44 81.92 69.12 0 138.24-28.16 189.44-79.36l2.56-2.56c104.96-107.52 104.96-281.6 0-389.12l-192-189.44-189.44 189.44c-104.96 107.52-104.96 281.6 0 389.12zM512 448c71.68 0 128 56.32 128 128s-56.32 128-128 128-128-56.32-128-128 56.32-128 128-128zM512 652.8c43.52 0 76.8-33.28 76.8-76.8s-33.28-76.8-76.8-76.8-76.8 33.28-76.8 76.8 33.28 76.8 76.8 76.8z" />
<glyph unicode="&#xe906;" glyph-name="uniE906" data-tags="uniE906" d="M618.667-64c-17.067 0-51.2 0-72.533 25.6l-93.867 76.8c-25.6 21.333-29.867 64-8.533 89.6s64 29.867 89.6 8.533l68.267-55.467v409.6l204.8 256c8.533 12.8 8.533 29.867 0 38.4 0 0-4.267 4.267-4.267 4.267h-537.6c0 0-8.533-8.533-8.533-21.333 0-8.533 4.267-12.8 4.267-17.067l209.067-256v-234.667c0-34.133-29.867-64-64-64s-64 29.867-64 64v187.733l-179.2 221.867c-21.333 25.6-34.133 59.733-34.133 98.133 0 81.067 64 149.333 136.533 149.333h533.333c38.4 0 76.8-17.067 102.4-46.933 51.2-55.467 51.2-145.067 0-204.8l-174.933-217.6v-405.333c0-59.733-46.933-106.667-106.667-106.667z" />
<glyph unicode="&#xe907;" glyph-name="uniE907" data-tags="uniE907" d="M399.231 197.607c2.030-3.066 4.396-5.976 7.098-8.675 21.885-21.885 56.922-21.784 78.594-0.109l330.779 330.779c21.657 21.657 21.623 56.861-0.109 78.594-21.885 21.885-56.922 21.784-78.594 0.109l-291.314-291.314-149.535 149.535c-21.642 21.642-56.972 21.733-78.703 0-21.885-21.885-21.733-56.972 0-78.703l173.15-173.15c2.687-2.687 5.587-5.041 8.643-7.065zM512-64c-282.771 0-512 229.229-512 512s229.229 512 512 512c282.771 0 512-229.229 512-512s-229.229-512-512-512z" />
<glyph unicode="&#xe908;" glyph-name="uniE908" data-tags="uniE908" horiz-adv-x="1280" d="M1139.2 153.6c6.4-6.4 6.4-12.8 6.4-25.6 0-6.4-6.4-19.2-6.4-25.6-6.4-6.4-12.8-6.4-25.6-6.4-6.4 0-19.2 6.4-25.6 6.4l-230.4 230.4-115.2-115.2 70.4-70.4c6.4-6.4 6.4-12.8 6.4-25.6 0-6.4-6.4-19.2-6.4-25.6-6.4-6.4-12.8-6.4-25.6-6.4-6.4 0-19.2 6.4-25.6 6.4l-281.6 307.2-294.4-294.4c-12.8-12.8-32-12.8-44.8 0-6.4 6.4-12.8 12.8-12.8 19.2s6.4 19.2 6.4 25.6l320 320c12.8 12.8 32 12.8 44.8 0l198.4-198.4 134.4 134.4c12.8 12.8 32 12.8 44.8 0l262.4-256zM1273.6 864v-832c0-51.2-44.8-96-96-96h-1081.6c-51.2 0-96 44.8-96 96v832c6.4 51.2 44.8 96 96 96h1081.6c57.6 0 96-44.8 96-96zM1209.6 864c0 19.2-12.8 32-32 32h-1081.6c-12.8 0-25.6-12.8-25.6-32v-832c0-19.2 12.8-32 32-32h1081.6c19.2 0 32 12.8 32 32v832zM864 659.2c0 64 51.2 108.8 108.8 108.8s115.2-51.2 115.2-108.8c0-64-51.2-108.8-108.8-108.8s-115.2 44.8-115.2 108.8zM928 659.2c0-25.6 19.2-44.8 44.8-44.8s51.2 12.8 51.2 44.8c0 25.6-25.6 44.8-51.2 44.8s-44.8-19.2-44.8-44.8z" />
<glyph unicode="&#xe909;" glyph-name="uniE909" data-tags="uniE909" d="M512-64c-281.6 0-512 230.4-512 512s230.4 512 512 512 512-230.4 512-512-230.4-512-512-512zM259.657 480.914c-14.629 0-10.971-25.6-10.971-25.6v-237.714h277.943c0 0 95.086 0 142.629 7.314 25.6 3.657 62.171 14.629 76.8 36.571 7.314 14.629 10.971 29.257 0 43.886 0-3.657-3.657-10.971-3.657-14.629 36.571 18.286 36.571 54.857 14.629 80.457 0-3.657-3.657-10.971-3.657-14.629 25.6 14.629 43.886 40.229 32.914 65.829-3.657 14.629-21.943 25.6-32.914 36.571 10.971 3.657 21.943 10.971 29.257 21.943 3.657 7.314 7.314 21.943 3.657 40.229-3.657 29.257-32.914 36.571-65.829 40.229 0 0-29.257 3.657-65.829 7.314-25.6 0-51.2 0-65.829 0 3.657 25.6 10.971 36.571 14.629 73.143 10.971 29.257 25.6 65.829 7.314 95.086-10.971 18.286-43.886 29.257-65.829 10.971-21.943-21.943-29.257-54.857-43.886-76.8-18.286-29.257-43.886-54.857-62.171-84.114-18.286-25.6-36.571-54.857-51.2-80.457-7.314-10.971-10.971-14.629-21.943-18.286-14.629-3.657-25.6-3.657-40.229-3.657-29.257-3.657-47.543-3.657-65.829-3.657z" />
<glyph unicode="&#xe90a;" glyph-name="uniE90A" data-tags="uniE90A" horiz-adv-x="1621" d="M896 674.133c-34.133 64-93.867 110.933-166.4 128-64 12.8-123.733 0-179.2-34.133-34.133 93.867-110.933 166.4-209.067 187.733-153.6 29.867-302.933-76.8-332.8-243.2-68.267-379.733 320-657.067 320-657.067 21.333-17.067 64-25.6 89.6-17.067 0 0 187.733 46.933 332.8 170.667-21.333 42.667-38.4 85.333-46.933 132.267-25.6 145.067 55.467 290.133 192 332.8zM234.667 750.933c-4.267-4.267-12.8-12.8-21.333-25.6-12.8-17.067-21.333-34.133-25.6-59.733-8.533-51.2-8.533-85.333 4.267-123.733 0-4.267 0-8.533 4.267-12.8 8.533-21.333-4.267-46.933-25.6-51.2-21.333-8.533-42.667 4.267-51.2 25.6 0 4.267-4.267 8.533-4.267 17.067-12.8 46.933-17.067 93.867-4.267 162.133 4.267 34.133 17.067 64 38.4 89.6 17.067 25.6 34.133 38.4 46.933 46.933 17.067 12.8 42.667 4.267 55.467-12.8 8.533-17.067 4.267-42.667-17.067-55.467zM1612.8 558.933c-25.6 153.6-166.4 251.733-307.2 221.867-89.6-17.067-157.867-85.333-192-170.667-46.933 29.867-102.4 42.667-162.133 29.867-123.733-25.6-209.067-157.867-183.467-294.4 55.467-302.933 460.8-405.333 460.8-405.333 25.6-8.533 68.267 0 89.6 17.067 4.267 0 358.4 251.733 294.4 601.6v0z" />
<glyph unicode="&#xe90b;" glyph-name="uniE90B" data-tags="地铁火车站" d="M512 960c-281.6 0-512-238.933-512-537.6 0-128 42.667-251.733 123.733-349.867 8.533-8.533 21.333-8.533 29.867 0s12.8 21.333 4.267 29.867c-72.533 89.6-115.2 200.533-115.2 320 0 273.067 213.333 494.933 469.333 494.933s469.333-221.867 469.333-494.933c0-119.467-42.667-234.667-119.467-324.267-8.533-8.533-8.533-25.6 4.267-29.867 8.533-8.533 21.333-8.533 29.867 4.267 81.067 98.133 128 221.867 128 354.133 0 294.4-230.4 533.333-512 533.333zM405.333 533.333h213.333c12.8 0 21.333 8.533 21.333 21.333s-8.533 21.333-21.333 21.333h-213.333c-12.8 0-21.333-8.533-21.333-21.333s8.533-21.333 21.333-21.333zM405.333 405.333h213.333c12.8 0 21.333 8.533 21.333 21.333s-8.533 21.333-21.333 21.333h-213.333c-12.8 0-21.333-8.533-21.333-21.333s8.533-21.333 21.333-21.333zM640 320c-25.6 0-42.667-17.067-42.667-42.667s17.067-42.667 42.667-42.667 42.667 17.067 42.667 42.667-17.067 42.667-42.667 42.667zM384 320c-25.6 0-42.667-17.067-42.667-42.667s17.067-42.667 42.667-42.667 42.667 17.067 42.667 42.667-17.067 42.667-42.667 42.667zM576 64h-128c-12.8 0-21.333-8.533-21.333-21.333s8.533-21.333 21.333-21.333h128c12.8 0 21.333 8.533 21.333 21.333s-8.533 21.333-21.333 21.333zM768 691.2c-12.8 8.533-29.867 12.8-68.267 12.8h-59.733c0 72.533-55.467 128-128 128s-128-55.467-128-128h-59.733c-38.4 0-55.467-4.267-68.267-12.8s-25.6-21.333-29.867-34.133-12.8-29.867-12.8-72.533v-362.667c0-42.667 4.267-55.467 12.8-72.533s17.067-25.6 34.133-34.133c8.533-4.267 25.6-8.533 55.467-8.533l-51.2-85.333c-4.267-8.533-4.267-21.333 8.533-29.867 8.533-4.267 21.333-4.267 29.867 8.533l64 106.667h285.867l64-106.667c4.267-8.533 17.067-12.8 29.867-8.533 8.533 4.267 12.8 17.067 8.533 29.867l-51.2 85.333c38.4 0 51.2 4.267 64 12.8s25.6 21.333 34.133 34.133 12.8 29.867 12.8 72.533v358.4c0 42.667-4.267 55.467-12.8 72.533s-21.333 25.6-34.133 34.133zM512 780.8c42.667 0 76.8-34.133 76.8-76.8h-153.6c0 42.667 34.133 76.8 76.8 76.8zM768 226.133c0-29.867 0-38.4-4.267-51.2-4.267-8.533-8.533-12.8-12.8-17.067-8.533-4.267-17.067-8.533-46.933-8.533h-379.733c-29.867 0-38.4 4.267-46.933 8.533s-12.8 8.533-12.8 17.067c-8.533 8.533-8.533 17.067-8.533 51.2v358.4c0 34.133 0 42.667 4.267 51.2s8.533 12.8 12.8 17.067c12.8 4.267 21.333 8.533 51.2 8.533h379.733c29.867 0 38.4-4.267 46.933-8.533s12.8-8.533 12.8-17.067c4.267-8.533 4.267-17.067 4.267-51.2v-358.4z" />
<glyph unicode="&#xe90c;" glyph-name="uniE90C" data-tags="机场" d="M529.067 622.933l68.267 89.6c46.933 64 136.533 72.533 200.533 25.6 4.267-4.267 8.533-8.533 17.067-12.8 55.467-55.467 55.467-145.067 0-200.533-4.267-4.267-8.533-8.533-12.8-12.8l-59.733-46.933c0 0 0 0-4.267 0l-29.867-21.333c4.267-4.267 8.533-8.533 8.533-12.8l64-294.4c8.533-34.133-12.8-68.267-46.933-81.067s-72.533 0-89.6 29.867l-123.733 213.333c0 0 0 0 0 4.267l-51.2-38.4v-110.933c0-34.133-29.867-64-64-64s-64 29.867-64 64l-4.267 98.133-98.133 4.267c-34.133 0-64 29.867-64 64s29.867 64 64 64h115.2l38.4 46.933-217.6 123.733c-29.867 17.067-42.667 55.467-29.867 89.6s46.933 55.467 81.067 46.933l294.4-64c0 0 4.267-4.267 8.533-4.267zM499.2 584.533l-285.867 64c-8.533 4.267-21.333-4.267-25.6-17.067s0-29.867 12.8-34.133l213.333-123.733c0 0 0 0 0 0l85.333 110.933zM674.133 418.133l-119.467-89.6c0 0 4.267-4.267 4.267-4.267l123.733-213.333c4.267-12.8 21.333-17.067 34.133-12.8s21.333 17.067 17.067 25.6l-59.733 294.4zM435.2 294.4l277.333 209.067c0 0 0 0 4.267 0l59.733 42.667c4.267 4.267 8.533 4.267 8.533 8.533 38.4 38.4 38.4 98.133 0 136.533-8.533 8.533-12.8 12.8-17.067 12.8-42.667 34.133-106.667 25.6-136.533-17.067l-251.733-337.067c-4.267-4.267-8.533-8.533-17.067-8.533 0 0 0 0 0 0h-123.733c-12.8 0-17.067-8.533-17.067-17.067 0-12.8 8.533-21.333 21.333-21.333l119.467-4.267c12.8 0 21.333-8.533 21.333-21.333 0 0 0 0 0 0v-123.733c0-12.8 8.533-21.333 21.333-21.333s17.067 8.533 17.067 17.067v123.733c0 0 0 0 0 0 4.267 12.8 4.267 17.067 12.8 21.333zM896 72.533c-8.533-8.533-21.333-12.8-29.867-4.267s-8.533 21.333-4.267 29.867c72.533 89.6 119.467 204.8 119.467 324.267 0 273.067-213.333 494.933-469.333 494.933s-469.333-221.867-469.333-494.933c0-119.467 42.667-230.4 115.2-320 8.533-8.533 8.533-25.6-4.267-29.867-8.533-8.533-21.333-8.533-29.867 0-81.067 98.133-123.733 221.867-123.733 349.867 0 298.667 230.4 537.6 512 537.6s512-238.933 512-537.6c0-128-46.933-251.733-128-349.867zM755.2 584.533c-8.533-8.533-21.333-8.533-29.867 0s-8.533 21.333 0 29.867c8.533 8.533 8.533 17.067 0 25.6s-17.067 8.533-25.6 0c-8.533-8.533-21.333-8.533-29.867 0s-8.533 21.333 0 29.867c25.6 25.6 64 25.6 89.6 0 21.333-21.333 21.333-59.733-4.267-85.333zM320 21.333h268.8c12.8 0 21.333-8.533 21.333-21.333s-8.533-21.333-21.333-21.333h-268.8c-12.8 0-21.333 8.533-21.333 21.333s8.533 21.333 21.333 21.333z" />
<glyph unicode="&#xe90d;" glyph-name="icon" data-tags="解释icon" d="M512 960c-281.6 0-512-230.4-512-512s230.4-512 512-512 512 230.4 512 512-230.4 512-512 512zM512 9.143c-241.371 0-438.857 197.486-438.857 438.857s197.486 438.857 438.857 438.857c241.371 0 438.857-197.486 438.857-438.857s-197.486-438.857-438.857-438.857zM519.314 758.857c-62.171 0-113.371-18.286-146.286-58.514-36.571-36.571-51.2-87.771-51.2-146.286h69.486c0 43.886 10.971 76.8 29.257 102.4 21.943 29.257 54.857 43.886 98.743 43.886 36.571 0 65.829-10.971 87.771-29.257 18.286-18.286 29.257-47.543 29.257-80.457 0-25.6-7.314-47.543-25.6-69.486-3.657-7.314-14.629-18.286-29.257-32.914-47.543-43.886-76.8-76.8-87.771-102.4-10.971-21.943-14.629-47.543-14.629-76.8v-21.943h69.486v21.943c0 21.943 3.657 43.886 18.286 65.829 7.314 14.629 21.943 32.914 40.229 47.543 40.229 32.914 62.171 58.514 69.486 65.829 21.943 29.257 32.914 62.171 32.914 102.4 0 51.2-18.286 95.086-47.543 124.343-40.229 29.257-84.114 43.886-142.629 43.886zM508.343 224.914c-14.629 0-25.6-3.657-36.571-14.629s-14.629-21.943-14.629-36.571 3.657-25.6 14.629-36.571c10.971-10.971 21.943-14.629 36.571-14.629s25.6 3.657 36.571 14.629c10.971 10.971 14.629 21.943 14.629 36.571s-3.657 25.6-14.629 36.571c-10.971 7.314-21.943 14.629-36.571 14.629z" />
<glyph unicode="&#xe90e;" glyph-name="icon1" data-tags="照片icon" d="M911.36 212.48c5.12-5.12 5.12-10.24 5.12-20.48 0-5.12-5.12-15.36-5.12-20.48-5.12-5.12-10.24-5.12-20.48-5.12-5.12 0-15.36 5.12-20.48 5.12l-184.32 184.32-92.16-92.16 56.32-56.32c5.12-5.12 5.12-10.24 5.12-20.48 0-5.12-5.12-15.36-5.12-20.48-5.12-5.12-10.24-5.12-20.48-5.12-5.12 0-15.36 5.12-20.48 5.12l-225.28 245.76-235.52-235.52c-10.24-10.24-25.6-10.24-35.84 0-5.12 5.12-10.24 10.24-10.24 15.36s5.12 15.36 5.12 20.48l256 256c10.24 10.24 25.6 10.24 35.84 0l158.72-158.72 107.52 107.52c10.24 10.24 25.6 10.24 35.84 0l209.92-204.8zM1018.88 780.8v-665.6c0-40.96-35.84-76.8-76.8-76.8h-865.28c-40.96 0-76.8 35.84-76.8 76.8v665.6c5.12 40.96 35.84 76.8 76.8 76.8h865.28c46.080 0 76.8-35.84 76.8-76.8zM967.68 780.8c0 15.36-10.24 25.6-25.6 25.6h-865.28c-10.24 0-20.48-10.24-20.48-25.6v-665.6c0-15.36 10.24-25.6 25.6-25.6h865.28c15.36 0 25.6 10.24 25.6 25.6v665.6zM691.2 616.96c0 51.2 40.96 87.040 87.040 87.040s92.16-40.96 92.16-87.040c0-51.2-40.96-87.040-87.040-87.040s-92.16 35.84-92.16 87.040zM742.4 616.96c0-20.48 15.36-35.84 35.84-35.84s40.96 10.24 40.96 35.84c0 20.48-20.48 35.84-40.96 35.84s-35.84-15.36-35.84-35.84z" />
<glyph unicode="&#xe90f;" glyph-name="uniE90F" data-tags="直线距离" d="M512 789.333c-166.4 0-298.667-132.267-298.667-298.667 0-85.333 64-187.733 132.267-264.533-55.467-25.6-89.6-64-89.6-106.667 0-81.067 115.2-140.8 256-140.8s256 59.733 256 140.8c0 42.667-34.133 81.067-89.6 106.667 68.267 76.8 132.267 179.2 132.267 264.533 0 166.4-132.267 298.667-298.667 298.667zM725.333 119.467c0-46.933-93.867-93.867-213.333-93.867s-213.333 46.933-213.333 93.867c0 25.6 29.867 55.467 76.8 72.533 0 0 0 0 0 0 51.2-51.2 106.667-85.333 132.267-85.333s81.067 34.133 132.267 85.333c0 0 0 0 0 0 55.467-21.333 85.333-46.933 85.333-72.533zM657.067 264.533c-59.733-68.267-123.733-115.2-145.067-115.2s-85.333 51.2-145.067 115.2c-68.267 76.8-110.933 162.133-110.933 226.133 0 140.8 115.2 256 256 256s256-115.2 256-256c0-64-42.667-149.333-110.933-226.133zM512 960c-281.6 0-512-238.933-512-537.6 0-128 42.667-251.733 123.733-349.867 8.533-8.533 21.333-8.533 29.867 0s12.8 21.333 4.267 29.867c-72.533 89.6-115.2 200.533-115.2 320 0 273.067 213.333 494.933 469.333 494.933s469.333-221.867 469.333-494.933c0-119.467-42.667-234.667-119.467-324.267-8.533-8.533-8.533-25.6 4.267-29.867 8.533-8.533 21.333-8.533 29.867 4.267 81.067 98.133 128 221.867 128 354.133 0 294.4-230.4 533.333-512 533.333zM512 618.667c-72.533 0-128-55.467-128-128s55.467-128 128-128 128 55.467 128 128-55.467 128-128 128zM512 413.867c-42.667 0-76.8 34.133-76.8 76.8s34.133 76.8 76.8 76.8 76.8-34.133 76.8-76.8-34.133-76.8-76.8-76.8z" />
<glyph unicode="&#xe910;" glyph-name="1" data-tags="分享 (1)" horiz-adv-x="1054" d="M124.45-48.941c-60.318 0-109.391 49.036-109.391 109.309v715.060c0 60.255 49.072 109.277 109.391 109.277h303.368c18.082 0 32.793-14.726 32.793-32.828 0-18.066-14.719-32.793-32.809-32.829h-297.896c-27.081 0-49.111-22.036-49.111-49.122v-704.121c0-27.068 22.030-49.090 49.111-49.090h734.068c27.098 0 49.142 22.022 49.142 49.090v282.887c0.11 17.964 14.848 32.599 32.854 32.599 18.042 0 32.78-14.659 32.854-32.678v-288.246c0-60.273-49.074-109.309-109.393-109.309h-744.981zM290.726 131.765c-9.185 0-17.814 3.547-24.301 9.988-6.674 6.627-10.372 15.603-10.425 25.288 6.817 89.516 18.6 162.846 36.020 224.184 18.134 63.856 42.441 115.112 74.312 156.705 63.21 82.496 159.281 129.17 302.335 146.873h207.561l-196.446 196.676c-3.193 6.4-5.748 14.763-5.748 18.9 0 19.057 15.595 34.562 34.763 34.562 4.365 0 10.617-0.533 15.868-3.033l9.441-7.71 268.116-266.678 6.867-7.783-6.692-6.66-275.263-272.166c-5.295-2.151-13.432-4.431-17.328-4.431-19.152 0-34.733 15.503-34.733 34.562 0 6.004 1.039 11.507 2.93 15.554l6.904 8.673 191.42 190.357-207.525 0.028c-122.959-13.569-200.982-52.342-252.982-125.718-49.7-70.134-77.047-172.191-91.416-341.21-4.904-13.333-18.719-26.962-33.678-26.962z" />
<glyph unicode="&#xe911;" glyph-name="btn" data-tags="向下btn" d="M512-64c-21.943-7.314-51.2 0-65.829 21.943l-424.229 424.229c-29.257 29.257-29.257 73.143 0 102.4s80.457 29.257 102.4 0l387.657-380.343 387.657 387.657c29.257 29.257 73.143 29.257 102.4 0s29.257-73.143 0-102.4l-424.229-424.229c-14.629-21.943-43.886-29.257-65.829-29.257zM512 462.629c-21.943-7.314-51.2 0-65.829 21.943l-351.086 343.771c-29.257 29.257-29.257 73.143 0 109.714 29.257 29.257 80.457 29.257 109.714 0l307.2-307.2 307.2 307.2c29.257 29.257 80.457 29.257 109.714 0s29.257-80.457 0-109.714l-351.086-343.771c-14.629-21.943-43.886-29.257-65.829-21.943z" />
<glyph unicode="&#xe912;" glyph-name="1x" data-tags="提示@1x" d="M563.2 285.867l17.067 490.667h-85.333l12.8-490.667h55.467zM533.333 217.6c-17.067 0-29.867-4.267-38.4-17.067-12.8-8.533-17.067-21.333-17.067-38.4s4.267-29.867 17.067-38.4c12.8-8.533 25.6-17.067 38.4-17.067s29.867 4.267 42.667 17.067c8.533 8.533 17.067 21.333 17.067 38.4s-4.267 29.867-17.067 38.4c-12.8 12.8-25.6 17.067-42.667 17.067zM512 960c-281.6 0-512-230.4-512-512s230.4-512 512-512c281.6 0 512 230.4 512 512s-230.4 512-512 512zM512 21.333c-234.667 0-426.667 192-426.667 426.667s192 426.667 426.667 426.667c234.667 0 426.667-192 426.667-426.667s-192-426.667-426.667-426.667z" />
<glyph unicode="&#xe913;" glyph-name="uniE913" data-tags="箭头" d="M863.344 448c1.928-26.693-7.361-54.097-27.911-74.647l-358.623-358.623c-37.356-37.356-97.521-37.757-134.961-0.317-37.181 37.181-37.17 97.474 0.317 134.961l298.627 298.627-298.627 298.627c-37.487 37.487-37.498 97.78-0.317 134.961 37.44 37.44 97.605 37.039 134.961-0.317l358.623-358.623c20.55-20.55 29.838-47.954 27.911-74.647z" />
<glyph unicode="&#xe914;" glyph-name="uniE914" data-tags="星星" d="M512 92.052l-316.433-113.385 9.233 338.287-204.8 268.211 322.14 95.688 189.86 279.148 189.86-279.148 322.14-95.688-204.8-268.211 9.233-338.287z" />
<glyph unicode="&#xe915;" glyph-name="account" data-tags="account" d="M693.347 490.289c112.993-63.209 184.509-182.567 184.509-314.439v-133.981c0-13.874-11.247-25.121-25.121-25.121h-669.907c-13.874 0-25.121 11.247-25.121 25.121v133.981c0 131.871 71.516 251.23 184.513 314.444 8.264 4.623 18.425 4.207 26.283-1.077 43.793-29.446 95.313-45.405 149.28-45.405 53.964 0 105.485 15.957 149.286 45.401 7.857 5.282 18.017 5.698 26.279 1.075zM681.568 438.906c-48.981-29.465-105.228-45.336-163.786-45.336-55.899 0-109.69 14.463-157.060 41.407l-6.723 3.934-5.352-3.413c-86.742-56.564-140.697-153.366-140.697-259.648v-108.86h619.664v108.86c0 108.451-56.18 207.032-146.046 263.056zM517.782 887.626c106.369 0 192.598-86.229 192.598-192.598s-86.229-192.598-192.598-192.598c-106.369 0-192.598 86.229-192.598 192.598s86.229 192.598 192.598 192.598zM517.782 837.383c-78.621 0-142.355-63.735-142.355-142.355s63.735-142.355 142.355-142.355c78.621 0 142.355 63.735 142.355 142.355s-63.735 142.355-142.355 142.355z" />
<glyph unicode="&#xe916;" glyph-name="clear" data-tags="clear" d="M512 0c-247.468 0-448 200.532-448 448s200.532 448 448 448 448-200.532 448-448-200.532-448-448-448zM512 492.8l-121.6 121.6c-12.8 12.8-32 12.8-44.8 0s-12.8-32 0-44.8l121.6-121.6-121.6-121.6c-12.8-12.8-12.8-32 0-44.8s32-12.8 44.8 0l121.6 121.6 121.6-121.6c12.8-12.8 32-12.8 44.8 0s12.8 32 0 44.8l-121.6 121.6 121.6 121.6c12.8 12.8 12.8 32 0 44.8s-32 12.8-44.8 0l-121.6-121.6z" />
<glyph unicode="&#xe917;" glyph-name="phone" data-tags="phone" d="M739.368 896c51.159 0 92.632-41.629 92.632-92.981v-710.038c0-51.352-41.473-92.981-92.632-92.981h-454.737c-51.159 0-92.632 41.629-92.632 92.981v710.038c0 51.352 41.473 92.981 92.632 92.981h454.737zM781.461 219.776h-538.944l0.009-126.795c0-23.342 18.851-42.264 42.105-42.264h454.737c23.254 0 42.105 18.922 42.105 42.264l-0.012 126.795zM503.579 194.415c27.905 0 50.526-22.707 50.526-50.717s-22.621-50.717-50.526-50.717c-27.905 0-50.526 22.707-50.526 50.717s22.621 50.717 50.526 50.717zM739.368 845.283h-454.737c-23.254 0-42.105-18.922-42.105-42.264l-0.009-532.512h538.944l0.012 532.512c0 23.342-18.851 42.264-42.105 42.264z" />
<glyph unicode="&#xe918;" glyph-name="pwd-hide" data-tags="pwd-hide" d="M753.518 383.191l75.473-109.384c12.756-18.486 8.11-43.814-10.378-56.57s-43.813-8.109-56.569 10.378l-86.169 124.886c-41.97-12.942-86.563-21.244-132.618-24.334v-148.945c0-22.46-18.208-40.667-40.668-40.667s-40.668 18.207-40.668 40.667v148.945c-46.055 3.090-90.648 11.392-132.618 24.334l-86.169-124.886c-12.756-18.486-38.082-23.133-56.569-10.378s-23.134 38.083-10.378 56.57l75.473 109.384c-63.822 31.31-118.193 74.607-157.668 127.211-13.48 17.965-9.846 43.456 8.119 56.938s43.456 9.846 56.938-8.119c69.048-92.014 199.032-151.078 343.54-151.078s274.492 59.064 343.54 151.078c13.481 17.964 38.972 21.599 56.938 8.119s21.599-38.972 8.119-56.938c-39.476-52.605-93.846-95.901-157.668-127.211z" />
<glyph unicode="&#xe919;" glyph-name="pwd-show" data-tags="pwd-show" d="M922.443 295.497c-111.062-167.225-252.415-252.415-410.174-252.415s-299.111 85.19-410.174 259.356c-21.456 28.84-21.456 68.339 0 97.18 104.121 174.166 242.949 264.404 410.174 264.404s306.053-90.238 410.174-264.404c21.492-31.38 21.492-72.741 0-104.121zM512.269 176.862c70.672 0.007 134.333 42.72 161.136 108.112s11.434 140.498-38.902 190.104c-50.336 49.606-125.658 63.878-190.652 36.123s-106.772-92.033-105.748-162.697c0.334-45.857 18.871-89.704 51.533-121.893s76.775-50.085 122.633-49.749zM413.196 351.028c0-54.716 44.356-99.073 99.073-99.073s99.073 44.356 99.073 99.073c0 54.716-44.356 99.073-99.073 99.073s-99.073-44.356-99.073-99.073v0zM512.269 727.126c-20.028 1.236-35.995 17.203-37.231 37.231v51.745c1.236 20.028 17.203 35.995 37.231 37.231 20.028-1.236 35.995-17.203 37.231-37.231v-49.221c0.042-21.007-16.266-38.422-37.231-39.755v0zM277.523 671.595c-8.922-5.887-19.838-7.933-30.286-5.678s-19.547 8.624-25.245 17.667l-18.931 43.542c-11.78 18.831-6.141 43.641 12.621 55.531 18.668 11.898 43.435 6.551 55.531-11.99l18.3-43.542c5.887-8.922 7.933-19.838 5.678-30.286s-8.624-19.547-17.667-25.245v0zM821.477 727.126l-18.931-43.542c-5.698-9.043-14.797-15.411-25.245-17.667s-21.364-0.209-30.286 5.678c-9.043 5.698-15.411 14.797-17.667 25.245s-0.209 21.364 5.678 30.286l18.3 43.542c12.096 18.541 36.863 23.888 55.531 11.99 18.762-11.89 24.401-36.7 12.621-55.531v0z" />
<glyph unicode="&#xe91a;" glyph-name="pwd" data-tags="pwd" d="M522.667 874.667c129.603 0 234.667-105.431 234.667-235.487v-117.729l25.143-0.015c50.915 0 92.19-41.419 92.19-92.513v-336.41c0-51.093-41.275-92.513-92.19-92.513h-519.619c-50.915 0-92.19 41.419-92.19 92.513v336.41c0 51.093 41.275 92.513 92.19 92.513l25.122 0.015 0.021 117.729c0 130.056 105.064 235.487 234.667 235.487zM782.476 470.974h-519.619c-23.143 0-41.905-18.827-41.905-42.051v-336.41c0-23.224 18.761-42.051 41.905-42.051h519.619c23.143 0 41.905 18.827 41.905 42.051v336.41c0 23.224-18.761 42.051-41.905 42.051zM522.667 378.462c13.886 0 25.143-11.296 25.143-25.231v-185.026c0-13.935-11.257-25.231-25.143-25.231s-25.143 11.296-25.143 25.231v185.026c0 13.935 11.257 25.231 25.143 25.231zM522.667 824.205c-101.831 0-184.381-82.839-184.381-185.026v-117.743l368.762 0.015v117.728c0 102.187-82.55 185.026-184.381 185.026z" />
<glyph unicode="&#xe91b;" glyph-name="valid" data-tags="valid" d="M522.794 890.654c92.465-73.792 196.135-112.091 311.742-115.203 22.332-0.601 40.131-19.34 40.131-42.25v-346.756c0-172.9-122.059-301.416-359.643-385.072-5.278-1.858-11.014-1.831-16.275 0.077-230.846 83.728-349.416 212.324-349.416 384.995v346.768c0 22.889 17.769 41.618 40.080 42.246 112.551 3.171 213.204 41.379 302.73 114.968 8.934 7.343 21.615 7.437 30.651 0.226zM507.824 838.712l-8.145-6.171c-89.914-66.945-190.398-102.861-300.891-107.497v-338.598c0-145.883 100.758-257.027 308.329-334.198 214.161 77.245 318.095 188.491 318.095 334.198v338.575l-10.264 0.499c-109.189 6.245-208.93 41.983-298.734 107.010l-8.39 6.182zM684.585 583.328c10.838-11.16 10.838-29.255 0-40.415l-181.595-185.909c-5.203-5.364-12.263-8.378-19.625-8.378s-14.422 3.014-19.625 8.378l-101.842 96.809c-10.838 11.16-10.838 29.255 0 40.415s28.411 11.16 39.25 0l82.479-77.409 161.709 166.51c10.838 11.16 28.411 11.16 39.25 0z" />
<glyph unicode="&#xe91c;" glyph-name="warn-tips" data-tags="warn-tips" d="M512 960c-282.768 0-512-229.232-512-512s229.228-512 512-512 512 229.228 512 512-229.232 512-512 512zM487.66 755.172c0.584 0.028 1.168 0.028 1.784 0.028h45.084c24.224 0 43.884-19.632 43.884-43.888 0-0.612 0-1.228-0.028-1.812l-13.372-321.828c-0.992-23.496-20.332-42.072-43.856-42.072h-18.636c-23.552 0-42.888 18.576-43.856 42.1l-13.080 321.828c-0.992 24.228 17.848 44.648 42.076 45.64zM512 140.8c-37.712 0-68.256 30.576-68.256 68.288 0 37.68 30.572 68.228 68.256 68.228 37.712 0 68.284-30.548 68.284-68.228 0-37.712-30.572-68.288-68.284-68.288z" />
</font>
</defs>
</svg>
